<svg width="585" height="250" viewBox="0 0 585 250" fill="none" xmlns="http://www.w3.org/2000/svg">
<path d="M2.3 141.44L0 161.1C0 161.1 29.21 169.64 48.36 111.38C64.56 56.38 37.42 53.25 33.36 54.1C30.14 54.67 9.10001 58.83 8.18001 142.57C8.18001 142.57 6.96 181.13 28.76 182.46C50.56 183.79 65.76 120.26 70.67 111.19C70.67 111.19 75.43 128.39 70.67 181.51L87.1 182.51C87.1 182.51 98.21 88.41 72.39 87.84C67.76 88.15 59.91 82.98 44.6 136.05C44.6 136.05 33.7 162.7 29.32 162.7C24.94 162.7 16.89 115.63 35.54 73.38C35.54 73.38 41.54 87.21 29.09 116.74C16.64 146.27 2.3 141.44 2.3 141.44Z" fill="#00303C"/>
<path d="M183.21 101.64L199.21 109C199.21 109 188.45 142.86 190.21 160.55C190.21 160.55 192.99 160.94 208.07 133.43C223.15 105.92 233.21 103.96 240.76 108.64C248.31 113.32 257.81 141.64 251.91 186.45C246.01 231.26 228.31 242.85 214.37 243.24C200.43 243.63 187.98 235.38 187.98 219.24C187.98 203.1 215.98 165.79 268.75 162.85C268.75 162.85 268.55 162.79 275.75 181.47C261.65 181.67 215.84 195.07 205.68 220.02C205.68 220.02 227.68 237.71 235.68 181.12C235.68 181.12 238.11 143.2 232.37 129.44C232.37 129.44 220.24 149.09 208.28 168.15C196.32 187.21 184.51 181.51 184.51 181.51C184.51 181.51 159.03 176.99 183.21 101.64Z" fill="#00303C"/>
<path d="M148.09 139.69C147.9 138.5 147.72 137.27 147.57 136.01C147.09 132.1 146.82 128.73 146.76 125.92C146.851 129.372 147.121 132.816 147.57 136.24C147.72 137.5 147.9 138.73 148.09 139.92C150.53 129.07 151.31 123.03 151.36 119.68C151.27 123.07 150.47 129.08 148.09 139.69ZM131.84 120.69C131.48 123.202 131.27 125.733 131.21 128.27C131.28 125.749 131.5 123.235 131.87 120.74C131.87 120.74 131.84 120.69 131.84 120.64V120.69ZM137.57 160.69C133.47 165.11 128.75 167.94 124.32 168.15C118.32 168.42 113.62 163.88 110.65 154.98C109.544 149.711 108.875 144.359 108.65 138.98C108.852 144.431 109.521 149.854 110.65 155.19C113.65 164.09 118.35 168.63 124.32 168.36C128.78 168.15 133.52 165.28 137.63 160.82L137.57 160.69Z" fill="#00303C"/>
<path d="M279.55 182.48L234.26 58.9301H271.04L304.53 158.71H288.21L322.21 58.9301H358.48L312.48 182.48H279.55Z" fill="#00303C"/>
<path d="M374.29 94.33C371.979 94.3909 369.68 93.9667 367.543 93.0849C365.405 92.203 363.476 90.883 361.88 89.2101C358.699 85.7935 356.93 81.2984 356.93 76.63C356.93 71.9616 358.699 67.4666 361.88 64.05C365.194 60.7707 369.668 58.9313 374.33 58.9313C378.992 58.9313 383.466 60.7707 386.78 64.05C389.908 67.4934 391.641 71.9783 391.641 76.63C391.641 81.2818 389.908 85.7667 386.78 89.2101C385.178 90.8978 383.237 92.2267 381.084 93.1093C378.931 93.9918 376.616 94.4079 374.29 94.33Z" fill="#00303C"/>
<path d="M391.3 97.11H357.29V182.48H391.3V97.11Z" fill="#00303C"/>
<path d="M394.21 182.48V97.1H428.21V182.48H394.21ZM428.21 136.32L412.42 122.32C416.82 113.06 421.94 106.263 427.78 101.93C433.62 97.5967 440.937 95.4267 449.73 95.42C453.165 95.3475 456.591 95.8166 459.88 96.81C462.451 97.581 464.803 98.952 466.74 100.81C458.861 107.533 453.307 116.573 450.87 126.64L450.2 129.4C448.364 127.829 446.322 126.517 444.13 125.5C442.393 124.813 440.538 124.474 438.67 124.5C435.2 124.5 432.59 125.5 430.86 127.5C429.13 129.5 428.21 132.5 428.21 136.32Z" fill="#00303C"/>
<path d="M493.32 184.21C485.863 184.352 478.521 182.368 472.15 178.49C466.009 174.662 461.03 169.23 457.75 162.78C454.17 155.651 452.385 147.756 452.55 139.78C452.394 131.78 454.178 123.861 457.75 116.7C461.003 110.233 465.988 104.798 472.15 101C478.537 97.1701 485.874 95.2155 493.32 95.36C498.039 95.3123 502.723 96.1677 507.12 97.88C511.12 99.4039 514.733 101.794 517.7 104.88C520.491 107.766 522.402 111.387 523.21 115.32V164.26C522.392 168.171 520.481 171.771 517.7 174.64C514.733 177.726 511.12 180.116 507.12 181.64C502.725 183.364 498.041 184.237 493.32 184.21ZM500.96 154.37C502.87 154.452 504.776 154.132 506.554 153.429C508.332 152.726 509.943 151.656 511.28 150.29C512.594 148.885 513.616 147.234 514.287 145.432C514.958 143.629 515.265 141.712 515.19 139.79C515.253 137.167 514.655 134.571 513.45 132.24C512.303 130.113 510.594 128.342 508.51 127.12C506.868 126.141 505.047 125.498 503.153 125.23C501.26 124.962 499.332 125.074 497.483 125.559C495.633 126.044 493.898 126.892 492.38 128.055C490.862 129.218 489.59 130.671 488.64 132.33C487.345 134.6 486.686 137.177 486.73 139.79C486.687 142.392 487.314 144.96 488.55 147.25C489.742 149.427 491.514 151.23 493.67 152.46C495.886 153.736 498.403 154.396 500.96 154.37ZM514.15 182.48V159.57L518.83 138.75L514.15 118.1V97.1H547.29V182.48H514.15Z" fill="#00303C"/>
<path d="M550.41 182.48V55.48H584.41V182.48H550.41Z" fill="#00303C"/>
<path d="M176.04 178.56C174.404 176.01 173.062 173.282 172.04 170.43C171.584 169.183 171.201 167.911 170.89 166.62C170.89 166.56 170.89 166.5 170.84 166.44L170.46 166.63L170.23 166.7C169.585 166.913 168.909 167.021 168.23 167.02H167.46C162.28 166.79 158.12 164.29 154.81 159.43L154.89 159.31C159.374 152.499 162.825 145.062 165.13 137.24C166.653 132.123 167.497 126.827 167.64 121.49C167.64 120.93 167.64 120.36 167.64 119.8C167.64 119.5 167.64 119.19 167.64 118.89C167.562 114.878 166.668 110.924 165.01 107.27C162.01 101.11 156.72 98.13 150.09 98.83C147.643 99.044 145.269 99.7697 143.121 100.96C140.973 102.15 139.098 103.779 137.62 105.74L137.31 106.16C133.19 102.16 127.8 100.16 121.31 100.03C113.69 99.92 107.36 102.48 102.54 107.62C94.6699 115.99 92.74 129 92.46 138.01C92.46 138.6 92.46 139.18 92.46 139.75V141.26C92.46 141.77 92.46 142.26 92.46 142.71C92.46 142.95 92.46 143.17 92.46 143.39C92.46 144.58 92.56 145.58 92.62 146.39C93.62 159.46 101.43 176.12 113.95 181.25C116.509 182.307 119.251 182.847 122.02 182.84C127.9 182.84 135.33 180.49 144.02 172.94L144.11 172.85L144.77 172.17C146.483 174.124 148.419 175.869 150.54 177.37C159.93 183.99 168.93 182.37 169.32 182.37L170.4 182.17L170.64 182.09C171.679 181.889 172.699 181.602 173.69 181.23C174.34 180.99 176.16 180.16 176.83 179.84L176.04 178.56ZM146.79 122.82C146.96 119.82 147.47 117.76 148.33 116.67C148.554 116.391 148.835 116.163 149.154 116.001C149.473 115.839 149.823 115.746 150.18 115.73H150.37C150.433 115.721 150.497 115.726 150.558 115.745C150.618 115.764 150.674 115.796 150.72 115.84C151.194 116.628 151.418 117.542 151.36 118.46C151.36 118.69 151.36 118.93 151.36 119.19C151.36 119.45 151.36 119.51 151.36 119.69C151.27 123.08 150.47 129.09 148.09 139.69C147.9 138.5 147.72 137.27 147.57 136.01C147.09 132.1 146.82 128.73 146.76 125.92C146.76 125.33 146.76 124.77 146.76 124.22C146.76 123.67 146.77 123.26 146.79 122.82ZM108.64 136.07C108.64 135.67 108.64 135.28 108.64 134.89C109.16 123.03 113.57 115.89 121.77 113.89C125.49 112.98 129 116.35 131.77 120.67C131.41 123.182 131.2 125.713 131.14 128.25C131.14 128.59 131.14 128.93 131.14 129.25C131.14 130.08 131.14 130.89 131.14 131.66C131.14 131.97 131.14 132.27 131.14 132.56C131.206 135.202 131.413 137.84 131.76 140.46C132.789 147.413 134.715 154.203 137.49 160.66C133.39 165.08 128.67 167.91 124.24 168.12C118.24 168.39 113.54 163.85 110.57 154.95C109.464 149.681 108.795 144.329 108.57 138.95C108.57 138.63 108.57 138.32 108.57 138.01C108.63 137.37 108.63 136.71 108.64 136.07Z" fill="#00303C"/>
</svg>
